<svg xmlns="http://www.w3.org/2000/svg" xmlns:xlink="http://www.w3.org/1999/xlink" xmlns:lucid="lucid" width="754.43" height="870.83"><g transform="translate(-478.5925925925926 -199.5)" lucid:page-tab-id="0_0"><path d="M0 0h1500v1500H0z" fill="#fff"/><path d="M800 400h120v120H800V400z" stroke="#000" stroke-opacity="0" fill="url(#a)"/><path d="M894.6 477.1c.57.32.94.9.94 1.55 0 .66-.3 1.24-.88 1.65l-33.7 20.6c-.35.18-.64.26-1 .26-.3 0-.67-.08-.96-.25l-33.76-20.6c-.5-.33-.88-1-.88-1.65v-39.32c0-.66.37-1.24.88-1.57l29.96-18.8c.58-.32 1.3-.32 1.9 0 .58.34 1.02.9 1.02 1.66v16.8c0 .67-.36 1.25-.95 1.66l-14.1 8.74v22.26l16.95 10.22 19.66-10.8c.6-.24 1.24-.24 1.83.08zm-34.65 20.02L890 478.74l-9.44-5.44-19.73 10.8c-.6.32-1.25.24-1.83-.1l-18.7-11.2c-.6-.33-.96-1-.96-1.65v-24.32c0-.66.37-1.23.88-1.56l14.1-8.82V424l-26.23 16.4v37.27zm36.54-59.44c.58.33.94 1 .94 1.65v31.82c0 .66-.37 1.32-.88 1.65-.3.17-.65.25-1.02.25-.3 0-.5-.08-.8-.17l-15-7.5c-.64-.33-1-1-1-1.73V447.9l-15.94-8.82c-.58-.33-.95-.9-.95-1.65v-16.8c0-.67.37-1.33.95-1.66.6-.33 1.32-.33 1.83 0zm-2.8 30.5V440.4l-28.12-16.57v12.53l15.93 8.82c.6.33.96 1 .96 1.65v15.67z" stroke="#000" stroke-opacity="0" fill="#fff"/><use xlink:href="#b" transform="matrix(1,0,0,1,770,529) translate(18.987654320987644 14.222222222222223)"/><use xlink:href="#c" transform="matrix(1,0,0,1,770,529) translate(104.81481481481481 14.222222222222223)"/><path d="M1100 400h120v120h-120V400z" stroke="#000" stroke-opacity="0" fill="url(#d)"/><path d="M1175.03 452.5v15c0 .67-.42 1.25-1 1.58l-13.12 7.52c-.24.16-.57.24-.9.24-.4 0-.74-.08-1.07-.33l-13.13-9.32c-.5-.4-.83-1-.83-1.57v-13.1c0-.67.42-1.33 1-1.66l13.12-7.52c.57-.33 1.23-.33 1.8 0l13.13 7.52c.58.33 1 1 1 1.65zm-13.13 41.68l6.03-7.26 2.88 2.4-9.4 11.3c-.33.4-.82.66-1.4.66s-1.07-.25-1.4-.66l-9.4-11.3 2.87-2.4 6.03 7.26v-13.54h3.8zm-9.83-61.18l-2.88-2.4 9.4-11.22c.66-.9 2.14-.9 2.8 0l9.4 11.23-2.87 2.4-6.03-7.26v13.62h-3.8v-13.62zm-22.53 14.53l9.4 11.23c.6.75.6 1.9-.16 2.56l-9.33 9.4-2.64-2.7 6.12-6.12h-14.2v-3.8h14.78l-6.85-8.17zm71.74 10.57v3.8h-14.2l6.1 6.1-2.63 2.73-9.33-9.4c-.75-.75-.75-1.9 0-2.65l9.33-9.4 2.64 2.63-6.12 6.2zm-30.05 8.34V455.7l-9.33 5.37v10.74zm-20.56-13.95l9.33 5.35 9.33-5.36-9.33-5.38zm-1.9 12.12l9.33 6.77v-10.33l-9.33-5.36z" stroke="#000" stroke-opacity="0" fill="#fff"/><use xlink:href="#e" transform="matrix(1,0,0,1,1070,529) translate(17.80246913580247 14.222222222222223)"/><use xlink:href="#f" transform="matrix(1,0,0,1,1070,529) translate(62.543209876543216 14.222222222222223)"/><use xlink:href="#g" transform="matrix(1,0,0,1,1070,529) translate(104.0246913580247 14.222222222222223)"/><path d="M936.38 460h147.24" stroke="#3a414a" fill="none"/><path d="M921.62 460l14.26-4.63v9.26zM1098.38 460l-14.26 4.63v-9.26z" stroke="#3a414a" fill="#3a414a"/><path d="M500 400h120v120H500V400z" stroke="#000" stroke-opacity="0" fill="url(#h)"/><path d="M593.13 438.3c0 .97-.5 1.85-1.32 2.34l-31.85 18.47v39.36c0 .97-.5 1.85-1.32 2.34-.43.24-.95.4-1.38.4-.52 0-.95-.16-1.4-.4l-30.1-17.42c-.88-.57-1.4-1.45-1.4-2.42v-38.4c0-.95.52-1.84 1.4-2.32l33.18-19.2c.8-.56 1.82-.56 2.7 0l30.04 14.84c.95.56 1.46 1.45 1.46 2.42zm-35.52 17.82l30.63-17.74-27.9-13.87-32.24 18.64v37.25l28.12 16.28v-38.22c0-.97.5-1.85 1.4-2.34zm38.45-9.6c.88.5 1.4 1.38 1.4 2.34v32.26c0 .97-.52 1.86-1.4 2.34l-26.23 17.42c-.52.24-1.03.4-1.54.4-.44 0-.95-.16-1.3-.32-.9-.5-1.4-1.45-1.4-2.42V482.8c0-.95.5-1.84 1.24-2.32l11.9-8.96v-15.16c0-1.45 1.18-2.1 1.62-2.34l13-7.5c.88-.48 1.9-.48 2.7 0zm-2.34 34.04v-29.92l-11.24 6.53v15.24c0 .66-.3 1.14-.73 1.54l-12.43 9.36v13.38z" stroke="#000" stroke-opacity="0" fill="#fff"/><use xlink:href="#b" transform="matrix(1,0,0,1,470,529) translate(10.592592592592581 14.222222222222223)"/><use xlink:href="#i" transform="matrix(1,0,0,1,470,529) translate(96.41975308641975 14.222222222222223)"/><use xlink:href="#j" transform="matrix(1,0,0,1,470,529) translate(60.938271604938265 35.55555555555556)"/><path d="M558.56 700c-33.12 0-60 26.88-60 60 0 33.24 26.88 60 60 60 33.24 0 60-26.88 60-60 0-33.24-26.76-60-60-60zm15.84 112.08V802c0-4.08-2.28-7.56-5.4-9.84h.6c5.76-.6 10.68-2.4 10.68-2.4s7.32-2.28 11.4-6.96c4.2-5.16 5.4-12.36 5.4-12.36s1.2-7.92 0-14.28c-1.2-5.88-6-10.32-6-10.32s1.56-4.2 1.32-8.28c0-4.08-1.92-8.16-1.92-8.16s-3.48-.36-7.32 1.2c-4.44 1.92-9.48 5.4-9.48 5.4s-3.48-1.2-7.56-1.56c-3.72-.72-8.16-.72-8.16-.72s-4.44 0-8.28.72c-4.08.6-7.56 1.56-7.56 1.56s-5.04-3.48-9.48-5.4c-3.72-1.56-7.2-1.2-7.2-1.2s-1.92 4.08-1.92 8.16c0 4.2 1.2 8.28 1.2 8.28s-4.32 4.08-5.88 10.32c-1.68 6.36 0 14.28 0 14.28s.84 7.2 5.28 12.36c4.2 4.68 11.4 6.96 11.4 6.96s5.04 1.8 10.68 2.4h.96c-2.16 2.28-4.44 5.76-4.44 9.84v10.08c-22.32-6.6-38.52-27.48-38.52-52.08 0-30 24.36-54.24 54.36-54.24S613.28 730 613.28 760c0 24.6-16.44 45.48-38.88 52.08z" stroke="#000" stroke-opacity="0" fill="#0078d7"/><use xlink:href="#k" transform="matrix(1,0,0,1,468.56121937836053,829) translate(30.81481481481481 14.222222222222223)"/><use xlink:href="#l" transform="matrix(1,0,0,1,468.56121937836053,829) translate(90.96296296296296 14.222222222222223)"/><use xlink:href="#m" transform="matrix(1,0,0,1,468.56121937836053,829) translate(23.16049382716048 35.55555555555556)"/><use xlink:href="#n" transform="matrix(1,0,0,1,468.56121937836053,829) translate(100.64197530864197 35.55555555555556)"/><use xlink:href="#o" transform="matrix(1,0,0,1,468.56121937836053,829) translate(40.172839506172835 56.88888888888889)"/><use xlink:href="#p" transform="matrix(1,0,0,1,468.56121937836053,829) translate(103.28395061728395 56.88888888888889)"/><path d="M560 699.55V536.38" stroke="#3a414a" fill="none"/><path d="M560.48 700.07l-.96-.04v-.5h.96z" stroke="#3a414a" stroke-width=".05" fill="#3a414a"/><path d="M560 521.62l4.63 14.26h-9.26z" stroke="#3a414a" fill="#3a414a"/><path d="M636.38 460h147.24" stroke="#3a414a" fill="none"/><path d="M621.62 460l14.26-4.63v9.26zM798.38 460l-14.26 4.63v-9.26z" stroke="#3a414a" fill="#3a414a"/><path d="M1084.88 746.76V791l38.32-22.12v-44.24l-38.32 22.12z" stroke="#000" stroke-opacity="0" stroke-width="12.5" fill="#4040b2"/><path d="M1042.5 724.64l38.2 22.12V791l-38.2-22.12v-44.24zM1000 700v44.24l38.32 22.12v-44.24L1000 700zm42.5 117.88l38.2 22.12v-44.24l-38.2-22.12v44.24z" stroke="#000" stroke-opacity="0" stroke-width="12.5" fill="#5c4ee5"/><path d="M1063.2 900c-33.12 0-60 26.88-60 60 0 33.24 26.88 60 60 60 33.24 0 60-26.88 60-60 0-33.24-26.76-60-60-60zm15.84 112.08V1002c0-4.08-2.28-7.56-5.4-9.84h.6c5.76-.6 10.68-2.4 10.68-2.4s7.32-2.28 11.4-6.96c4.2-5.16 5.4-12.36 5.4-12.36s1.2-7.92 0-14.28c-1.2-5.88-6-10.32-6-10.32s1.56-4.2 1.32-8.28c0-4.08-1.92-8.16-1.92-8.16s-3.48-.36-7.32 1.2c-4.44 1.92-9.48 5.4-9.48 5.4s-3.48-1.2-7.56-1.56c-3.72-.72-8.16-.72-8.16-.72s-4.44 0-8.28.72c-4.08.6-7.56 1.56-7.56 1.56s-5.04-3.48-9.48-5.4c-3.72-1.56-7.2-1.2-7.2-1.2s-1.92 4.08-1.92 8.16c0 4.2 1.2 8.28 1.2 8.28s-4.32 4.08-5.88 10.32c-1.68 6.36 0 14.28 0 14.28s.84 7.2 5.28 12.36c4.2 4.68 11.4 6.96 11.4 6.96s5.04 1.8 10.68 2.4h.96c-2.16 2.28-4.44 5.76-4.44 9.84v10.08c-22.32-6.6-38.52-27.48-38.52-52.08 0-30 24.36-54.24 54.36-54.24s54.72 24.24 54.72 54.24c0 24.6-16.44 45.48-38.88 52.08z" stroke="#000" stroke-opacity="0" fill="#0078d7"/><use xlink:href="#k" transform="matrix(1,0,0,1,973.1987680123198,1029) translate(30.81481481481481 14.222222222222223)"/><use xlink:href="#l" transform="matrix(1,0,0,1,973.1987680123198,1029) translate(90.96296296296296 14.222222222222223)"/><use xlink:href="#m" transform="matrix(1,0,0,1,973.1987680123198,1029) translate(2.9135802469135683 35.55555555555556)"/><use xlink:href="#q" transform="matrix(1,0,0,1,973.1987680123198,1029) translate(80.39506172839506 35.55555555555556)"/><use xlink:href="#p" transform="matrix(1,0,0,1,973.1987680123198,1029) translate(140.54320987654322 35.55555555555556)"/><path d="M1064.64 899.55v-52.47" stroke="#3a414a" fill="none"/><path d="M1065.1 900.07l-.94-.04v-.5h.95z" stroke="#3a414a" stroke-width=".05" fill="#3a414a"/><path d="M1064.64 832.32l4.63 14.26H1060z" stroke="#3a414a" fill="#3a414a"/><path d="M1061.6 699.5V616a6 6 0 0 0-6-6H866a6 6 0 0 1-6-6v-67.62" stroke="#3a414a" fill="none"/><path d="M1062.07 703h-.95v-3.5h.95z" stroke="#3a414a" stroke-width=".05" fill="#3a414a"/><path d="M860 521.62l4.63 14.26h-9.26z" stroke="#3a414a" fill="#3a414a"/><path d="M800 200h120v120H800V200z" stroke="#fff" stroke-opacity="0" fill="#693cc5"/><path d="M877.3 263.78c-.53 0-.96-.23-1.26-.64-.92-1.27-8.96-12.4-8.96-17.6-.23-5.64 4.17-10.4 9.8-10.63 5.66-.2 10.42 4.2 10.65 9.82v.8c0 5.18-8.02 16.32-8.96 17.62-.3.4-.75.64-1.27.64zm0-25.3c-3.92 0-7.07 3.18-7.07 7.08 0 2.7 3.92 9.35 7.07 13.92 3.2-4.57 7.08-11.2 7.08-13.92 0-3.9-3.17-7.07-7.08-7.07z" stroke="#fff" stroke-opacity="0" fill="#fff"/><path d="M877.3 251.04c-3.02 0-5.48-2.45-5.48-5.47 0-3.02 2.45-5.47 5.48-5.47 3.02 0 5.47 2.45 5.47 5.47 0 3.03-2.44 5.47-5.46 5.47zm0-7.8c-1.3 0-2.33 1.06-2.33 2.34 0 1.3 1.03 2.34 2.33 2.34s2.33-1.05 2.33-2.34v-.05c0-1.3-1.04-2.33-2.33-2.33z" stroke="#fff" stroke-opacity="0" fill="#fff"/><path d="M885.3 286h-49.13c-8.1.1-14.86-6.04-15.5-14.16v-1.2c-.3-6.72 3.87-12.6 10.3-14.53v-1.24c.17-8.38 4.65-15.46 12.2-19.1 8.17-3.6 17.2-1.78 23.35 4.63l-2.28 2.22c-5.2-5.52-12.9-7.08-19.8-3.95-6.38 3.12-10.23 9.06-10.4 16.14 0 .8 0 1.47.17 2.25.08.83-.47 1.56-1.33 1.72-5.58 1.2-9.36 6.14-9.04 11.82v.98c.47 6.45 5.9 11.3 12.34 11.25h48.98c.3 0 11-1.1 11-12.2 0-9.3-7.62-11.6-10.92-12.18l.47-3.07c3.22.52 13.6 3.18 13.6 15.26 0 14.06-13.84 15.36-14 15.36z" stroke="#fff" stroke-opacity="0" fill="#fff"/><path d="M848 251.2h-14.7V248h13.1v-12.48h3.2v14.08c0 .88-.72 1.6-1.6 1.6zM828.44 280.94l-2.14-2.28 19.6-18.36v-1.88h-13.2v-3.2h14.76c.9 0 1.6.73 1.6 1.6v4.12c0 .46-.16.85-.5 1.16zM832.78 284.8l-2.16-2.28 16.24-15.56c.68-.58 1.68-.53 2.26.15.25.3.38.6.4 1v16.33h-3.12v-12.7zM864.9 261.57H855c-.88 0-1.6-.73-1.6-1.6v-24.45h3.2v22.92h6.76V246.4h3.2V260c0 .9-.75 1.6-1.63 1.57h-.04zM864.9 275.65H855c-.87 0-1.6-.72-1.6-1.6v-9.24c0-.88.73-1.6 1.6-1.6h9.9c.88 0 1.6.72 1.6 1.6v9.28c-.02.87-.74 1.57-1.6 1.57zm-8.32-3.2h6.75v-6.1h-6.75zM865 286h-9.9c-.88 0-1.6-.72-1.6-1.6v-5.55c0-.88.72-1.6 1.6-1.6h9.9c.87 0 1.6.72 1.6 1.6v5.58c-.02.88-.74 1.57-1.6 1.57zm-8.33-3.2h6.75v-2.38h-6.75zM873.8 284.96h-3.2v-17.4c0-.9.7-1.6 1.6-1.6h25.6v3.2l-24-.02z" stroke="#fff" stroke-opacity="0" fill="#fff"/><g><use xlink:href="#r" transform="matrix(1,0,0,1,770,329) translate(-87.38271604938282 14.222222222222223)"/></g><path d="M860 320.5v63.12" stroke="#3a414a" fill="none"/><path d="M860.48 320.5h-.96v-.5h.96z" stroke="#3a414a" stroke-width=".05" fill="#3a414a"/><path d="M860 398.38l-4.63-14.26h9.26z" stroke="#3a414a" fill="#3a414a"/><defs><linearGradient gradientUnits="userSpaceOnUse" id="a" x1="800" y1="520" x2="920" y2="400"><stop offset="0%" stop-color="#c8511b"/><stop offset="100%" stop-color="#f90"/></linearGradient><path d="M101-234c-31-9-42 10-38 44h38v23H63V0H32v-167H5v-23h27c-7-52 17-82 69-68v24" id="s"/><path d="M100-194c62-1 85 37 85 99 1 63-27 99-86 99S16-35 15-95c0-66 28-99 85-99zM99-20c44 1 53-31 53-75 0-43-8-75-51-75s-53 32-53 75 10 74 51 75" id="t"/><path d="M114-163C36-179 61-72 57 0H25l-1-190h30c1 12-1 29 2 39 6-27 23-49 58-41v29" id="u"/><path d="M59-47c-2 24 18 29 38 22v24C64 9 27 4 27-40v-127H5v-23h24l9-43h21v43h35v23H59v120" id="v"/><path d="M84 4C-5 8 30-112 23-190h32v120c0 31 7 50 39 49 72-2 45-101 50-169h31l1 190h-30c-1-10 1-25-2-33-11 22-28 36-60 37" id="w"/><path d="M117-194c89-4 53 116 60 194h-32v-121c0-31-8-49-39-48C34-167 62-67 57 0H25l-1-190h30c1 10-1 24 2 32 11-22 29-35 61-36" id="x"/><path d="M100-194c63 0 86 42 84 106H49c0 40 14 67 53 68 26 1 43-12 49-29l28 8c-11 28-37 45-77 45C44 4 14-33 15-96c1-61 26-98 85-98zm52 81c6-60-76-77-97-28-3 7-6 17-6 28h103" id="y"/><path d="M16-82v-28h88v28H16" id="z"/><path d="M177-190C167-65 218 103 67 71c-23-6-38-20-44-43l32-5c15 47 100 32 89-28v-30C133-14 115 1 83 1 29 1 15-40 15-95c0-56 16-97 71-98 29-1 48 16 59 35 1-10 0-23 2-32h30zM94-22c36 0 50-32 50-73 0-42-14-75-50-75-39 0-46 34-46 75s6 73 46 73" id="A"/><g id="b"><use transform="matrix(0.04938271604938272,0,0,0.04938271604938272,0,0)" xlink:href="#s"/><use transform="matrix(0.04938271604938272,0,0,0.04938271604938272,4.938271604938272,0)" xlink:href="#t"/><use transform="matrix(0.04938271604938272,0,0,0.04938271604938272,14.814814814814817,0)" xlink:href="#u"/><use transform="matrix(0.04938271604938272,0,0,0.04938271604938272,20.69135802469136,0)" xlink:href="#v"/><use transform="matrix(0.04938271604938272,0,0,0.04938271604938272,25.629629629629633,0)" xlink:href="#w"/><use transform="matrix(0.04938271604938272,0,0,0.04938271604938272,35.50617283950618,0)" xlink:href="#x"/><use transform="matrix(0.04938271604938272,0,0,0.04938271604938272,45.38271604938272,0)" xlink:href="#y"/><use transform="matrix(0.04938271604938272,0,0,0.04938271604938272,55.25925925925927,0)" xlink:href="#z"/><use transform="matrix(0.04938271604938272,0,0,0.04938271604938272,61.13580246913581,0)" xlink:href="#A"/><use transform="matrix(0.04938271604938272,0,0,0.04938271604938272,71.01234567901236,0)" xlink:href="#t"/></g><path d="M135-143c-3-34-86-38-87 0 15 53 115 12 119 90S17 21 10-45l28-5c4 36 97 45 98 0-10-56-113-15-118-90-4-57 82-63 122-42 12 7 21 19 24 35" id="B"/><path d="M108 0H70L1-190h34L89-25l56-165h34" id="C"/><path d="M24-231v-30h32v30H24zM24 0v-190h32V0H24" id="D"/><path d="M96-169c-40 0-48 33-48 73s9 75 48 75c24 0 41-14 43-38l32 2c-6 37-31 61-74 61-59 0-76-41-82-99-10-93 101-131 147-64 4 7 5 14 7 22l-32 3c-4-21-16-35-41-35" id="E"/><g id="c"><use transform="matrix(0.04938271604938272,0,0,0.04938271604938272,0,0)" xlink:href="#B"/><use transform="matrix(0.04938271604938272,0,0,0.04938271604938272,8.88888888888889,0)" xlink:href="#y"/><use transform="matrix(0.04938271604938272,0,0,0.04938271604938272,18.765432098765434,0)" xlink:href="#u"/><use transform="matrix(0.04938271604938272,0,0,0.04938271604938272,24.641975308641978,0)" xlink:href="#C"/><use transform="matrix(0.04938271604938272,0,0,0.04938271604938272,33.53086419753087,0)" xlink:href="#D"/><use transform="matrix(0.04938271604938272,0,0,0.04938271604938272,37.4320987654321,0)" xlink:href="#E"/><use transform="matrix(0.04938271604938272,0,0,0.04938271604938272,46.32098765432099,0)" xlink:href="#y"/></g><linearGradient gradientUnits="userSpaceOnUse" id="d" x1="1100" y1="520" x2="1220" y2="400"><stop offset="0%" stop-color="#b0084d"/><stop offset="100%" stop-color="#ff4f8b"/></linearGradient><path d="M205 0l-28-72H64L36 0H1l101-248h38L239 0h-34zm-38-99l-47-123c-12 45-31 82-46 123h93" id="F"/><path d="M266 0h-40l-56-210L115 0H75L2-248h35L96-30l15-64 43-154h32l59 218 59-218h35" id="G"/><path d="M185-189c-5-48-123-54-124 2 14 75 158 14 163 119 3 78-121 87-175 55-17-10-28-26-33-46l33-7c5 56 141 63 141-1 0-78-155-14-162-118-5-82 145-84 179-34 5 7 8 16 11 25" id="H"/><g id="e"><use transform="matrix(0.04938271604938272,0,0,0.04938271604938272,0,0)" xlink:href="#F"/><use transform="matrix(0.04938271604938272,0,0,0.04938271604938272,11.209876543209878,0)" xlink:href="#G"/><use transform="matrix(0.04938271604938272,0,0,0.04938271604938272,27.95061728395062,0)" xlink:href="#H"/></g><g id="f"><use transform="matrix(0.04938271604938272,0,0,0.04938271604938272,0,0)" xlink:href="#F"/><use transform="matrix(0.04938271604938272,0,0,0.04938271604938272,11.851851851851853,0)" xlink:href="#w"/><use transform="matrix(0.04938271604938272,0,0,0.04938271604938272,21.7283950617284,0)" xlink:href="#v"/><use transform="matrix(0.04938271604938272,0,0,0.04938271604938272,26.666666666666668,0)" xlink:href="#t"/></g><path d="M141-36C126-15 110 5 73 4 37 3 15-17 15-53c-1-64 63-63 125-63 3-35-9-54-41-54-24 1-41 7-42 31l-33-3c5-37 33-52 76-52 45 0 72 20 72 64v82c-1 20 7 32 28 27v20c-31 9-61-2-59-35zM48-53c0 20 12 33 32 33 41-3 63-29 60-74-43 2-92-5-92 41" id="I"/><path d="M24 0v-261h32V0H24" id="J"/><g id="g"><use transform="matrix(0.04938271604938272,0,0,0.04938271604938272,0,0)" xlink:href="#H"/><use transform="matrix(0.04938271604938272,0,0,0.04938271604938272,11.851851851851853,0)" xlink:href="#E"/><use transform="matrix(0.04938271604938272,0,0,0.04938271604938272,20.74074074074074,0)" xlink:href="#I"/><use transform="matrix(0.04938271604938272,0,0,0.04938271604938272,30.617283950617285,0)" xlink:href="#J"/><use transform="matrix(0.04938271604938272,0,0,0.04938271604938272,34.51851851851852,0)" xlink:href="#D"/><use transform="matrix(0.04938271604938272,0,0,0.04938271604938272,38.41975308641975,0)" xlink:href="#x"/><use transform="matrix(0.04938271604938272,0,0,0.04938271604938272,48.2962962962963,0)" xlink:href="#A"/></g><linearGradient gradientUnits="userSpaceOnUse" id="h" x1="500" y1="520" x2="620" y2="400"><stop offset="0%" stop-color="#c8511b"/><stop offset="100%" stop-color="#f90"/></linearGradient><g id="i"><use transform="matrix(0.04938271604938272,0,0,0.04938271604938272,0,0)" xlink:href="#E"/><use transform="matrix(0.04938271604938272,0,0,0.04938271604938272,8.88888888888889,0)" xlink:href="#t"/><use transform="matrix(0.04938271604938272,0,0,0.04938271604938272,18.765432098765434,0)" xlink:href="#x"/><use transform="matrix(0.04938271604938272,0,0,0.04938271604938272,28.641975308641978,0)" xlink:href="#v"/><use transform="matrix(0.04938271604938272,0,0,0.04938271604938272,33.580246913580254,0)" xlink:href="#I"/><use transform="matrix(0.04938271604938272,0,0,0.04938271604938272,43.4567901234568,0)" xlink:href="#D"/><use transform="matrix(0.04938271604938272,0,0,0.04938271604938272,47.35802469135803,0)" xlink:href="#x"/><use transform="matrix(0.04938271604938272,0,0,0.04938271604938272,57.23456790123457,0)" xlink:href="#y"/><use transform="matrix(0.04938271604938272,0,0,0.04938271604938272,67.11111111111111,0)" xlink:href="#u"/></g><path d="M179-190L93 31C79 59 56 82 12 73V49c39 6 53-20 64-50L1-190h34L92-34l54-156h33" id="K"/><g id="j"><use transform="matrix(0.04938271604938272,0,0,0.04938271604938272,0,0)" xlink:href="#u"/><use transform="matrix(0.04938271604938272,0,0,0.04938271604938272,5.8765432098765435,0)" xlink:href="#y"/><use transform="matrix(0.04938271604938272,0,0,0.04938271604938272,15.753086419753087,0)" xlink:href="#A"/><use transform="matrix(0.04938271604938272,0,0,0.04938271604938272,25.629629629629633,0)" xlink:href="#D"/><use transform="matrix(0.04938271604938272,0,0,0.04938271604938272,29.530864197530867,0)" xlink:href="#B"/><use transform="matrix(0.04938271604938272,0,0,0.04938271604938272,38.41975308641976,0)" xlink:href="#v"/><use transform="matrix(0.04938271604938272,0,0,0.04938271604938272,43.35802469135803,0)" xlink:href="#u"/><use transform="matrix(0.04938271604938272,0,0,0.04938271604938272,49.23456790123458,0)" xlink:href="#K"/></g><path d="M143 4C61 4 22-44 18-125c-5-107 100-154 193-111 17 8 29 25 37 43l-32 9c-13-25-37-40-76-40-61 0-88 39-88 99 0 61 29 100 91 101 35 0 62-11 79-27v-45h-74v-28h105v86C228-13 192 4 143 4" id="L"/><path d="M197 0v-115H63V0H30v-248h33v105h134v-105h34V0h-34" id="M"/><path d="M115-194c53 0 69 39 70 98 0 66-23 100-70 100C84 3 66-7 56-30L54 0H23l1-261h32v101c10-23 28-34 59-34zm-8 174c40 0 45-34 45-75 0-40-5-75-45-74-42 0-51 32-51 76 0 43 10 73 51 73" id="N"/><g id="k"><use transform="matrix(0.04938271604938272,0,0,0.04938271604938272,0,0)" xlink:href="#L"/><use transform="matrix(0.04938271604938272,0,0,0.04938271604938272,13.827160493827162,0)" xlink:href="#D"/><use transform="matrix(0.04938271604938272,0,0,0.04938271604938272,17.728395061728396,0)" xlink:href="#v"/><use transform="matrix(0.04938271604938272,0,0,0.04938271604938272,22.666666666666668,0)" xlink:href="#M"/><use transform="matrix(0.04938271604938272,0,0,0.04938271604938272,35.45679012345679,0)" xlink:href="#w"/><use transform="matrix(0.04938271604938272,0,0,0.04938271604938272,45.333333333333336,0)" xlink:href="#N"/></g><g id="l"><use transform="matrix(0.04938271604938272,0,0,0.04938271604938272,0,0)" xlink:href="#F"/><use transform="matrix(0.04938271604938272,0,0,0.04938271604938272,11.851851851851853,0)" xlink:href="#E"/><use transform="matrix(0.04938271604938272,0,0,0.04938271604938272,20.74074074074074,0)" xlink:href="#v"/><use transform="matrix(0.04938271604938272,0,0,0.04938271604938272,25.679012345679016,0)" xlink:href="#D"/><use transform="matrix(0.04938271604938272,0,0,0.04938271604938272,29.58024691358025,0)" xlink:href="#t"/><use transform="matrix(0.04938271604938272,0,0,0.04938271604938272,39.45679012345679,0)" xlink:href="#x"/><use transform="matrix(0.04938271604938272,0,0,0.04938271604938272,49.333333333333336,0)" xlink:href="#B"/></g><path d="M143 0L79-87 56-68V0H24v-261h32v163l83-92h37l-77 82L181 0h-38" id="O"/><path d="M206 0h-36l-40-164L89 0H53L-1-190h32L70-26l43-164h34l41 164 42-164h31" id="P"/><g id="m"><use transform="matrix(0.04938271604938272,0,0,0.04938271604938272,0,0)" xlink:href="#G"/><use transform="matrix(0.04938271604938272,0,0,0.04938271604938272,16.39506172839506,0)" xlink:href="#t"/><use transform="matrix(0.04938271604938272,0,0,0.04938271604938272,26.271604938271608,0)" xlink:href="#u"/><use transform="matrix(0.04938271604938272,0,0,0.04938271604938272,32.148148148148145,0)" xlink:href="#O"/><use transform="matrix(0.04938271604938272,0,0,0.04938271604938272,41.03703703703704,0)" xlink:href="#s"/><use transform="matrix(0.04938271604938272,0,0,0.04938271604938272,45.97530864197531,0)" xlink:href="#J"/><use transform="matrix(0.04938271604938272,0,0,0.04938271604938272,49.876543209876544,0)" xlink:href="#t"/><use transform="matrix(0.04938271604938272,0,0,0.04938271604938272,59.75308641975309,0)" xlink:href="#P"/></g><path d="M30-248c118-7 216 8 213 122C240-48 200 0 122 0H30v-248zM63-27c89 8 146-16 146-99s-60-101-146-95v194" id="Q"/><g id="n"><use transform="matrix(0.04938271604938272,0,0,0.04938271604938272,0,0)" xlink:href="#Q"/><use transform="matrix(0.04938271604938272,0,0,0.04938271604938272,12.790123456790125,0)" xlink:href="#t"/><use transform="matrix(0.04938271604938272,0,0,0.04938271604938272,22.66666666666667,0)" xlink:href="#E"/><use transform="matrix(0.04938271604938272,0,0,0.04938271604938272,31.555555555555557,0)" xlink:href="#O"/><use transform="matrix(0.04938271604938272,0,0,0.04938271604938272,40.44444444444445,0)" xlink:href="#y"/><use transform="matrix(0.04938271604938272,0,0,0.04938271604938272,50.320987654320994,0)" xlink:href="#u"/></g><path d="M30-248c87 1 191-15 191 75 0 78-77 80-158 76V0H30v-248zm33 125c57 0 124 11 124-50 0-59-68-47-124-48v98" id="R"/><path d="M106-169C34-169 62-67 57 0H25v-261h32l-1 103c12-21 28-36 61-36 89 0 53 116 60 194h-32v-121c2-32-8-49-39-48" id="S"/><g id="o"><use transform="matrix(0.04938271604938272,0,0,0.04938271604938272,0,0)" xlink:href="#R"/><use transform="matrix(0.04938271604938272,0,0,0.04938271604938272,11.851851851851853,0)" xlink:href="#w"/><use transform="matrix(0.04938271604938272,0,0,0.04938271604938272,21.7283950617284,0)" xlink:href="#N"/><use transform="matrix(0.04938271604938272,0,0,0.04938271604938272,31.60493827160494,0)" xlink:href="#J"/><use transform="matrix(0.04938271604938272,0,0,0.04938271604938272,35.50617283950618,0)" xlink:href="#D"/><use transform="matrix(0.04938271604938272,0,0,0.04938271604938272,39.40740740740741,0)" xlink:href="#B"/><use transform="matrix(0.04938271604938272,0,0,0.04938271604938272,48.296296296296305,0)" xlink:href="#S"/></g><path d="M115-194c55 1 70 41 70 98S169 2 115 4C84 4 66-9 55-30l1 105H24l-1-265h31l2 30c10-21 28-34 59-34zm-8 174c40 0 45-34 45-75s-6-73-45-74c-42 0-51 32-51 76 0 43 10 73 51 73" id="T"/><g id="p"><use transform="matrix(0.04938271604938272,0,0,0.04938271604938272,0,0)" xlink:href="#H"/><use transform="matrix(0.04938271604938272,0,0,0.04938271604938272,11.851851851851853,0)" xlink:href="#v"/><use transform="matrix(0.04938271604938272,0,0,0.04938271604938272,16.790123456790127,0)" xlink:href="#y"/><use transform="matrix(0.04938271604938272,0,0,0.04938271604938272,26.666666666666668,0)" xlink:href="#T"/></g><g id="q"><use transform="matrix(0.04938271604938272,0,0,0.04938271604938272,0,0)" xlink:href="#Q"/><use transform="matrix(0.04938271604938272,0,0,0.04938271604938272,12.790123456790125,0)" xlink:href="#y"/><use transform="matrix(0.04938271604938272,0,0,0.04938271604938272,22.66666666666667,0)" xlink:href="#T"/><use transform="matrix(0.04938271604938272,0,0,0.04938271604938272,32.543209876543216,0)" xlink:href="#J"/><use transform="matrix(0.04938271604938272,0,0,0.04938271604938272,36.44444444444445,0)" xlink:href="#t"/><use transform="matrix(0.04938271604938272,0,0,0.04938271604938272,46.320987654320994,0)" xlink:href="#K"/></g><path fill="#3a414a" d="M101-234c-31-9-42 10-38 44h38v23H63V0H32v-167H5v-23h27c-7-52 17-82 69-68v24" id="U"/><path fill="#3a414a" d="M100-194c62-1 85 37 85 99 1 63-27 99-86 99S16-35 15-95c0-66 28-99 85-99zM99-20c44 1 53-31 53-75 0-43-8-75-51-75s-53 32-53 75 10 74 51 75" id="V"/><path fill="#3a414a" d="M114-163C36-179 61-72 57 0H25l-1-190h30c1 12-1 29 2 39 6-27 23-49 58-41v29" id="W"/><path fill="#3a414a" d="M59-47c-2 24 18 29 38 22v24C64 9 27 4 27-40v-127H5v-23h24l9-43h21v43h35v23H59v120" id="X"/><path fill="#3a414a" d="M84 4C-5 8 30-112 23-190h32v120c0 31 7 50 39 49 72-2 45-101 50-169h31l1 190h-30c-1-10 1-25-2-33-11 22-28 36-60 37" id="Y"/><path fill="#3a414a" d="M117-194c89-4 53 116 60 194h-32v-121c0-31-8-49-39-48C34-167 62-67 57 0H25l-1-190h30c1 10-1 24 2 32 11-22 29-35 61-36" id="Z"/><path fill="#3a414a" d="M100-194c63 0 86 42 84 106H49c0 40 14 67 53 68 26 1 43-12 49-29l28 8c-11 28-37 45-77 45C44 4 14-33 15-96c1-61 26-98 85-98zm52 81c6-60-76-77-97-28-3 7-6 17-6 28h103" id="aa"/><path fill="#3a414a" d="M16-82v-28h88v28H16" id="ab"/><path fill="#3a414a" d="M177-190C167-65 218 103 67 71c-23-6-38-20-44-43l32-5c15 47 100 32 89-28v-30C133-14 115 1 83 1 29 1 15-40 15-95c0-56 16-97 71-98 29-1 48 16 59 35 1-10 0-23 2-32h30zM94-22c36 0 50-32 50-73 0-42-14-75-50-75-39 0-46 34-46 75s6 73 46 73" id="ac"/><path fill="#3a414a" d="M33 0v-38h34V0H33" id="ad"/><path fill="#3a414a" d="M141-36C126-15 110 5 73 4 37 3 15-17 15-53c-1-64 63-63 125-63 3-35-9-54-41-54-24 1-41 7-42 31l-33-3c5-37 33-52 76-52 45 0 72 20 72 64v82c-1 20 7 32 28 27v20c-31 9-61-2-59-35zM48-53c0 20 12 33 32 33 41-3 63-29 60-74-43 2-92-5-92 41" id="ae"/><path fill="#3a414a" d="M115-194c55 1 70 41 70 98S169 2 115 4C84 4 66-9 55-30l1 105H24l-1-265h31l2 30c10-21 28-34 59-34zm-8 174c40 0 45-34 45-75s-6-73-45-74c-42 0-51 32-51 76 0 43 10 73 51 73" id="af"/><path fill="#3a414a" d="M24-231v-30h32v30H24zM24 0v-190h32V0H24" id="ag"/><path fill="#3a414a" d="M96-169c-40 0-48 33-48 73s9 75 48 75c24 0 41-14 43-38l32 2c-6 37-31 61-74 61-59 0-76-41-82-99-10-93 101-131 147-64 4 7 5 14 7 22l-32 3c-4-21-16-35-41-35" id="ah"/><path fill="#3a414a" d="M27 0v-27h64v-190l-56 39v-29l58-41h29v221h61V0H27" id="ai"/><path fill="#3a414a" d="M206 0h-36l-40-164L89 0H53L-1-190h32L70-26l43-164h34l41 164 42-164h31" id="aj"/><path fill="#3a414a" d="M135-143c-3-34-86-38-87 0 15 53 115 12 119 90S17 21 10-45l28-5c4 36 97 45 98 0-10-56-113-15-118-90-4-57 82-63 122-42 12 7 21 19 24 35" id="ak"/><path fill="#3a414a" d="M85-194c31 0 48 13 60 33l-1-100h32l1 261h-30c-2-10 0-23-3-31C134-8 116 4 85 4 32 4 16-35 15-94c0-66 23-100 70-100zm9 24c-40 0-46 34-46 75 0 40 6 74 45 74 42 0 51-32 51-76 0-42-9-74-50-73" id="al"/><path fill="#3a414a" d="M108 0H70L1-190h34L89-25l56-165h34" id="am"/><path fill="#3a414a" d="M24 0v-261h32V0H24" id="an"/><g id="r"><use transform="matrix(0.04938271604938272,0,0,0.04938271604938272,0,0)" xlink:href="#U"/><use transform="matrix(0.04938271604938272,0,0,0.04938271604938272,4.938271604938272,0)" xlink:href="#V"/><use transform="matrix(0.04938271604938272,0,0,0.04938271604938272,14.814814814814817,0)" xlink:href="#W"/><use transform="matrix(0.04938271604938272,0,0,0.04938271604938272,20.69135802469136,0)" xlink:href="#X"/><use transform="matrix(0.04938271604938272,0,0,0.04938271604938272,25.629629629629633,0)" xlink:href="#Y"/><use transform="matrix(0.04938271604938272,0,0,0.04938271604938272,35.50617283950618,0)" xlink:href="#Z"/><use transform="matrix(0.04938271604938272,0,0,0.04938271604938272,45.38271604938272,0)" xlink:href="#aa"/><use transform="matrix(0.04938271604938272,0,0,0.04938271604938272,55.25925925925927,0)" xlink:href="#ab"/><use transform="matrix(0.04938271604938272,0,0,0.04938271604938272,61.13580246913581,0)" xlink:href="#ac"/><use transform="matrix(0.04938271604938272,0,0,0.04938271604938272,71.01234567901236,0)" xlink:href="#V"/><use transform="matrix(0.04938271604938272,0,0,0.04938271604938272,80.8888888888889,0)" xlink:href="#ad"/><use transform="matrix(0.04938271604938272,0,0,0.04938271604938272,85.82716049382717,0)" xlink:href="#ae"/><use transform="matrix(0.04938271604938272,0,0,0.04938271604938272,95.70370370370371,0)" xlink:href="#af"/><use transform="matrix(0.04938271604938272,0,0,0.04938271604938272,105.58024691358025,0)" xlink:href="#ag"/><use transform="matrix(0.04938271604938272,0,0,0.04938271604938272,109.4814814814815,0)" xlink:href="#ab"/><use transform="matrix(0.04938271604938272,0,0,0.04938271604938272,115.35802469135804,0)" xlink:href="#ah"/><use transform="matrix(0.04938271604938272,0,0,0.04938271604938272,124.24691358024693,0)" xlink:href="#V"/><use transform="matrix(0.04938271604938272,0,0,0.04938271604938272,134.12345679012347,0)" xlink:href="#W"/><use transform="matrix(0.04938271604938272,0,0,0.04938271604938272,140,0)" xlink:href="#aa"/><use transform="matrix(0.04938271604938272,0,0,0.04938271604938272,149.87654320987656,0)" xlink:href="#ad"/><use transform="matrix(0.04938271604938272,0,0,0.04938271604938272,154.81481481481484,0)" xlink:href="#aa"/><use transform="matrix(0.04938271604938272,0,0,0.04938271604938272,164.6913580246914,0)" xlink:href="#Y"/><use transform="matrix(0.04938271604938272,0,0,0.04938271604938272,174.56790123456796,0)" xlink:href="#ah"/><use transform="matrix(0.04938271604938272,0,0,0.04938271604938272,183.45679012345684,0)" xlink:href="#ai"/><use transform="matrix(0.04938271604938272,0,0,0.04938271604938272,193.33333333333337,0)" xlink:href="#ad"/><use transform="matrix(0.04938271604938272,0,0,0.04938271604938272,198.27160493827165,0)" xlink:href="#ae"/><use transform="matrix(0.04938271604938272,0,0,0.04938271604938272,208.1481481481482,0)" xlink:href="#aj"/><use transform="matrix(0.04938271604938272,0,0,0.04938271604938272,220.93827160493834,0)" xlink:href="#ak"/><use transform="matrix(0.04938271604938272,0,0,0.04938271604938272,229.82716049382722,0)" xlink:href="#ab"/><use transform="matrix(0.04938271604938272,0,0,0.04938271604938272,235.70370370370378,0)" xlink:href="#al"/><use transform="matrix(0.04938271604938272,0,0,0.04938271604938272,245.5802469135803,0)" xlink:href="#aa"/><use transform="matrix(0.04938271604938272,0,0,0.04938271604938272,255.45679012345687,0)" xlink:href="#am"/><use transform="matrix(0.04938271604938272,0,0,0.04938271604938272,263.0123456790124,0)" xlink:href="#ad"/><use transform="matrix(0.04938271604938272,0,0,0.04938271604938272,267.9506172839507,0)" xlink:href="#ak"/><use transform="matrix(0.04938271604938272,0,0,0.04938271604938272,276.8395061728396,0)" xlink:href="#ab"/><use transform="matrix(0.04938271604938272,0,0,0.04938271604938272,282.71604938271616,0)" xlink:href="#ah"/><use transform="matrix(0.04938271604938272,0,0,0.04938271604938272,291.6049382716051,0)" xlink:href="#an"/><use transform="matrix(0.04938271604938272,0,0,0.04938271604938272,295.5061728395063,0)" xlink:href="#V"/><use transform="matrix(0.04938271604938272,0,0,0.04938271604938272,305.38271604938285,0)" xlink:href="#Y"/><use transform="matrix(0.04938271604938272,0,0,0.04938271604938272,315.2592592592594,0)" xlink:href="#al"/><use transform="matrix(0.04938271604938272,0,0,0.04938271604938272,325.13580246913597,0)" xlink:href="#ad"/><use transform="matrix(0.04938271604938272,0,0,0.04938271604938272,330.07407407407425,0)" xlink:href="#Z"/><use transform="matrix(0.04938271604938272,0,0,0.04938271604938272,339.9506172839508,0)" xlink:href="#aa"/><use transform="matrix(0.04938271604938272,0,0,0.04938271604938272,349.82716049382736,0)" xlink:href="#X"/></g></defs></g></svg>